<svg xmlns="http://www.w3.org/2000/svg" viewBox="0 0 610.29 602.48"><defs><style>.cls-1{fill:#272443;}.cls-2{fill:#f7967c;}.cls-3{fill:#e6eefc;}.cls-4{fill:#404082;}.cls-5{fill:#362b58;}.cls-6{fill:#db6357;}.cls-7{fill:#a9ccff;}.cls-8{fill:#84b7f4;}.cls-9{fill:#e75860;}.cls-10{fill:#d83f4e;}.cls-11{fill:#6981b7;}.cls-12{fill:#ec8161;}.cls-13{fill:#c9644d;}</style></defs><title>Asset 1</title><g id="Layer_2" data-name="Layer 2"><g id="Ñëîé_1" data-name="Ñëîé 1"><path class="cls-1" d="M327,14.33a16.73,16.73,0,0,1,1,2.83,33.74,33.74,0,0,1,1.28,6.46c1.36,17.23.67,34.26-3.73,51.14a10.42,10.42,0,0,1-2.26,4.84c-1.64,1.66-3.79,1.17-5.88,1.07-2.88-.14-5.76-.43-8.63-.64a4,4,0,0,1-2.37-.71,3.57,3.57,0,0,1-1-2.28,36.19,36.19,0,0,1-.05-8.64c.25-2.59,1-5.13,1-7.75a14.61,14.61,0,0,0-.77-3.61,14.61,14.61,0,0,1-.07-4.23,72.18,72.18,0,0,1,1-8.67c1-5.92,2.2-11.86,4.65-17.33a41.56,41.56,0,0,1,11.5-15.06c.22-.18.65-.28.69,0,0-.19,1.65.21,1.8.3a4,4,0,0,1,1.26,1.31A9.38,9.38,0,0,1,327,14.33Z"/><path class="cls-2" d="M323.8,115.07c1.18,5.17,2.71,10.27,4.24,15.35,5.75,19.1,11.52,38.23,19.26,56.61,1.7,4,5.18,12.74,10.46,13.06,4.59.27,10.61-5.37,11.76-9.49a16.75,16.75,0,0,0,0-7.39l-.3-1.6c-3.59-18.46-12.7-35.4-18-53.39-3.6-12.23-5.57-25.2-12.17-36.1-3.41-5.63-8.2-6.89-13.67-3.21s-3.9,12-3.14,17.77C322.63,109.5,323.16,112.3,323.8,115.07Z"/><path class="cls-3" d="M319.36,112.76c1.37,13.93,4.36,27.64,7.35,41.31,1,4.66,2,9.32,3.28,13.92.63,2.31,1.72,4.69,2.15,7,.38,2.08.17,3.71,3.06,2.89l5.95-1.69,22.15-6.28c4.57-1.3,5.5-1.2,3.82-5.94-1.23-3.48-2.5-6.94-3.78-10.4-5.19-14-10.61-28-14.42-42.5-2.63-9.95-8.65-33.36-23.06-22.42A16.17,16.17,0,0,0,321,95a22.75,22.75,0,0,0-1.48,4.73A45,45,0,0,0,319.36,112.76Z"/><path class="cls-4" d="M363.72,418.09q.48,5,.9,10a17.5,17.5,0,0,1-.21,6.17c-1.66,6-10.87,4-15.77,6.08-6.5,2.69-14,7.22-21.25,5.27-8.2-2.19-9.81-14.37-11.19-21.4-.22-1.09-.43-2.18-.65-3.27q-6.51-32.62-15.23-64.77c-2.75-10.14-6.75-20.44-8.49-30.75-1.84-10.83-4.95-21.6-7.52-32.32-2.28-9.48-4.57-19.05-4.79-28.8-.4-17.45,5.13-30.33,23.51-32.83,14.33-1.95,25.22.6,28.78,15.3q8,33,15.24,66.11,3.61,16.56,7.06,33.18c2.15,10.38,3.33,20.52,4.79,31Q361.75,397.51,363.72,418.09Z"/><path class="cls-2" d="M327.91,508.17c-4.12,14.31-4,29.38-4.8,44.18-.56,10.33-3.11,19.93-5.21,29.93-.64,3-.89,6.42,2.4,7.93,4.09,1.87,10.55,1,14.95,1.08,3.2.06,6.44,1.38,9.65,1.72a67.28,67.28,0,0,0,10,.08,41.33,41.33,0,0,0,6.29-.59c1.49-.29,4.54-1.09,3.06-3.31a4,4,0,0,0-2.81-1.89,26.34,26.34,0,0,1-3.44-.76c-4.46-1.41-8.23-4.45-11.9-7.43-1.24-1-2.78-1.92-3.59-3.34-3.4-5.93-.62-12,.93-18q2.7-10.59,5.41-21.18c2-7.85,4-15.74,4.85-23.82.26-2.56,1.57-8.45-.16-10.67-1.19-1.54-5.65-2.33-7.45-2.67-1.41-.27-3.06,0-4.41-.41-.94-.27-1.6-1-2.53-1.25-2.38-.79-5.22.27-7,1.93-2.25,2.13-3.35,5.19-4.22,8.17Z"/><path class="cls-5" d="M316.21,595.39h49.9l.13-.11c.75-.77.61-1.85.59-3.06a3.16,3.16,0,0,0-.37-1.61,1.42,1.42,0,0,0-.53-.45l-3.09,0c-1.56.18-3.12.31-4.69.39a84.85,84.85,0,0,1-9.7-.11c-1.64-.1-3.26-.25-4.89-.42l-23.27-.16c-2.06,0-5.12-1.77-5.32,2C314.89,593.15,315.22,594.72,316.21,595.39Z"/><path class="cls-5" d="M334.51,591.29c1,.22,3.7,1.2,4.54.44a3.07,3.07,0,0,0,.68-1.16,42.51,42.51,0,0,1,5.85-10,3.38,3.38,0,0,0,.65-1.07c.4-1.28-.93-2-1.54-2.86s-1.68-1.89-2.86-1.2a2.94,2.94,0,0,0-.86.86,72.48,72.48,0,0,0-4.56,7.43,22.41,22.41,0,0,0-2.83,7.24C333.57,591.07,334,591.17,334.51,591.29Z"/><path class="cls-5" d="M347.39,594.38a1.36,1.36,0,0,0,.29,0,26.69,26.69,0,0,0,4.38,0c.81-.08.75-.35.89-1a9.54,9.54,0,0,1,.66-1.9,41.1,41.1,0,0,1,2.19-4.22,3.49,3.49,0,0,0,.51-1.15c.22-1.31-1.19-1.84-1.91-2.62s-1.9-1.63-3-.8a3.13,3.13,0,0,0-.74,1,42.52,42.52,0,0,0-2.31,4.93c-.59,1.42-1.78,3.24-1.63,4.82a1,1,0,0,0,.38.8A.79.79,0,0,0,347.39,594.38Z"/><path class="cls-5" d="M335.63,586.75a3.51,3.51,0,0,1,.86.86c1.33,1.87-.9,4.49-2.9,4.13a4.71,4.71,0,0,1-1.14-.41l-14.8-6.87a1.43,1.43,0,0,1-.69-.52,1.46,1.46,0,0,1,0-1.07c.26-1.14.35-3.48,1.22-4.3.72-.68,2.18,0,3,.29a37.44,37.44,0,0,1,4.12,2.36q4.34,2.44,8.81,4.66A10.66,10.66,0,0,1,335.63,586.75Z"/><path class="cls-4" d="M313.55,564.33l.63-.08q-.4-24.64-.24-49l-.84,48.1Z"/><path class="cls-4" d="M314.33,494.11c-.25,22.06-.39,43.88-.37,65.86h40.09c2.6-18,4.56-36.19,6.59-54.38q3.54-31.79,4.8-63.75c.4-10.16.4-21.2-5-30.21-3.14-5.27-8.45-15.77-15-16.85-5.87-1-12.35,2.76-17.3,5.42s-7.52,3.55-9.5,8.8c-2.16,5.75-2.33,12.18-2.58,18.24-1.21,29.5-2,58.68-2.15,88l.44-25.49C314.36,491.19,314.34,492.65,314.33,494.11Z"/><path class="cls-2" d="M237.44,540.88c.43,7.45.79,14.91.75,22.38,0,6.52.17,12.61-1.18,19-.64,3-.89,6.42,2.4,7.93,4.09,1.87,10.55,1,15,1.08,3.2.06,6.44,1.38,9.65,1.72a67.28,67.28,0,0,0,10,.08,41.33,41.33,0,0,0,6.29-.59c1.49-.29,4.54-1.09,3.06-3.31a4,4,0,0,0-2.81-1.89,26.34,26.34,0,0,1-3.44-.76c-4.46-1.41-8.23-4.45-11.9-7.43-4.09-3.33-5.72-6.11-5.6-11.44.38-16.45,2.68-32.74,3.84-49.14.42-5.86.84-11.83-.25-17.64-.44-2.32-.67-4.9-2.76-6.27-1.8-1.17-4.19-1.42-6.27-1.72a62.14,62.14,0,0,0-10.82-.71c-1.71.06-3.93,0-5.47.91-2.11,1.2-1.59,3.6-1.69,5.76C235.57,512.88,236.63,526.88,237.44,540.88Z"/><path class="cls-5" d="M235.32,595.39h49.9l.13-.11c.75-.77.61-1.85.59-3.06a3.16,3.16,0,0,0-.37-1.61,1.42,1.42,0,0,0-.53-.45l-3.09,0c-1.56.18-3.12.31-4.69.39a84.85,84.85,0,0,1-9.7-.11c-1.64-.1-3.26-.25-4.89-.42l-23.26-.16c-2.07,0-5.13-1.77-5.33,2C234,593.15,234.33,594.72,235.32,595.39Z"/><path class="cls-5" d="M253.62,591.29c1,.22,3.7,1.2,4.54.44a3.07,3.07,0,0,0,.68-1.16,42.51,42.51,0,0,1,5.85-10,3.6,3.6,0,0,0,.66-1.07c.39-1.28-.94-2-1.55-2.86s-1.68-1.89-2.86-1.2a2.94,2.94,0,0,0-.86.86,72.48,72.48,0,0,0-4.56,7.43,22.41,22.41,0,0,0-2.83,7.24C252.68,591.07,253.07,591.17,253.62,591.29Z"/><path class="cls-5" d="M266.5,594.38a1.36,1.36,0,0,0,.29,0,26.69,26.69,0,0,0,4.38,0c.81-.08.75-.35.89-1a10.17,10.17,0,0,1,.65-1.9,43.27,43.27,0,0,1,2.2-4.22,3.49,3.49,0,0,0,.51-1.15c.22-1.31-1.19-1.84-1.91-2.62s-1.9-1.63-3-.8a3.13,3.13,0,0,0-.74,1,42.52,42.52,0,0,0-2.31,4.93c-.59,1.42-1.78,3.24-1.63,4.82a1,1,0,0,0,.38.8A.79.79,0,0,0,266.5,594.38Z"/><path class="cls-5" d="M254.74,586.75a3.7,3.7,0,0,1,.86.86c1.32,1.87-.9,4.49-2.9,4.13a4.71,4.71,0,0,1-1.14-.41l-14.8-6.87a1.43,1.43,0,0,1-.69-.52,1.46,1.46,0,0,1,0-1.07c.26-1.14.35-3.48,1.22-4.3.72-.68,2.18,0,3,.29a38.39,38.39,0,0,1,4.12,2.36q4.34,2.44,8.81,4.66A10.66,10.66,0,0,1,254.74,586.75Z"/><path class="cls-4" d="M233.16,449.87c.2,36.84.12,73.26-.86,110.1H275c2.07-5.8,1.61-16.8,2-20.57,4.18-40.5,4.59-81.81,7-122.27,2.53-42.32,6.73-84.8,7.4-127.12.13-7.76-1.78-14.93-2.65-22.64-1.16-10.29-5.23-18.54-16.16-19.76a47.45,47.45,0,0,0-23.76,3.59c-11,5-18.47,12.75-19.9,24.95-2,16.68-.32,33.53.87,50.28C232.74,367.51,232.94,408.71,233.16,449.87Z"/><path class="cls-4" d="M233.63,296c6.1,4.16,13.24,2,19.87.42,3.91-.95,8.11-.88,12-2.24,12.44-4.38,28.13-.91,41.31-.15a45.38,45.38,0,0,0,10.68-.24,23.24,23.24,0,0,0,18.08-17.25c.92-4,.74-8.13.52-12.21,0-.56-.07-1.1-.09-1.65-.92-15.93-2.54-31.8-4.57-47.61q-.51-3.92-1-7.82c-.37-2.7-.75-5.39-1.14-8.09H271.19c-3.18,0-6.45-.18-9.62.14-5.17.51-10.07-.26-14.46,3-8.79,6.6-12.75,25.28-15.28,35.46-3.57,14.32-5.5,29.7-4.21,44.4.42,4.87,1.39,10.24,5.25,13.25C233.12,295.66,233.37,295.84,233.63,296Z"/><path class="cls-1" d="M298.22,272.59c2.57-1.38,4.3-3.82,6-6.09q3.11-4.1,6.2-8.18c1.19-1.57,2.37-3.14,3.56-4.7a.69.69,0,0,1,.66-.21c.12,0,.53.17.37.37l-6.36,8.4-3.23,4.27c-.9,1.18-1.78,2.39-2.76,3.5A13.62,13.62,0,0,1,299,273a.85.85,0,0,1-.76,0C298,272.9,298,272.7,298.22,272.59Z"/><path class="cls-1" d="M263.48,249.81c.22-9.25.17-18.52.63-27.77.26-5.17.68-10.35,1.39-15.48.06-.42,1.13-.39,1.08,0a228.86,228.86,0,0,0-1.77,27.58c-.17,9.25-.16,18.51-.76,27.74-.34,5.17-.87,10.33-1.72,15.44-.07.42-1.14.38-1.08,0A194.88,194.88,0,0,0,263.48,249.81Z"/><path class="cls-1" d="M327.09,209.58q1.46,15,2.9,30l.82,8.45c0,.39-1,.42-1.07,0q-1.46-15-2.9-30c-.28-2.82-.55-5.63-.82-8.45C326,209.19,327.05,209.16,327.09,209.58Z"/><path class="cls-3" d="M338.91,109.25c.41,3.36.84,6.73,1,10.09a182.43,182.43,0,0,1-3.28,41.59c-.92,4.68-2,9.32-2.83,14-1.66,9.58-2.08,19.32-2.45,29s-20.53.14-25.7-.15c-9.05-.51-18.16.81-27,2.88s-17.53,4.89-26.3,7.29c-4.09,1.11-8,3.29-12.28,3.62-5.42.42-5-6.39-4.79-10.45.85-15.24,1.32-30.11.12-45.28q-1.83-23.11-2.58-46.3c-.19-5.81-.32-11.7,1-17.36,1.94-8.14,7.11-14.53,15-17.28s16.45-6.87,24.76-8.36A88,88,0,0,1,295.71,72c6,.47,12.09,1,17.74,3l1.21.46c3,1.19,5.66,1.53,8.58,3.09,3.75,2,9.06,4.09,12.05,7.14,3.43,3.49,2.65,9,2.73,13.35A94.64,94.64,0,0,0,338.91,109.25Z"/><path class="cls-2" d="M313.33,79.68a56.35,56.35,0,0,1-8.17,22.2c-.41.65-1,1.35-1.72,1.34a2.25,2.25,0,0,1-1.16-.49,159.78,159.78,0,0,1-18.75-14.54,40.77,40.77,0,0,1-7-7.64,18,18,0,0,1-2.81-7s0-.1,0-.15a72.74,72.74,0,0,1,22-1.44c6,.47,12.09,1,17.74,3A15.54,15.54,0,0,1,313.33,79.68Z"/><path class="cls-2" d="M223.11,184.61c.47-10.35,2.23-20.61,3-31q1.25-16.54,3.06-33c.87-7.9-.21-17.25,4.34-24.16A17.87,17.87,0,0,1,242,89.25c11.37-4.1,15.15,9.06,16.41,17.6,1.23,8.35.33,16.84-.45,25.25-1.92,20.55-5.48,41.07-8.51,61.49-1,6.79-4.52,9.36-10.93,10.78-5,1.11-12.08,1.37-14.5-4.24a12.29,12.29,0,0,1-.79-4A95.85,95.85,0,0,1,223.11,184.61Z"/><path class="cls-3" d="M258.92,106a46.49,46.49,0,0,0-2.81-12.19,27.18,27.18,0,0,0-5.88-9,6.62,6.62,0,0,0-5.13-2l0-.06-.28.08a10.4,10.4,0,0,0-5.47,2.6c-11.1,8.09-12.54,29.51-14.24,41-2.09,14-3.3,28.19-4.42,42.33-.18,2.26.22,3.51,1,4.19,1.9,1.67,6.42.42,8.67.28l11.46-.7c2.25-.14,18.71-2,18.71.08V146.42C260.57,132.94,260.57,119.41,258.92,106Z"/><path class="cls-2" d="M276.93,198.06a14.83,14.83,0,0,0,3.77-1.55c3.74-2.32,6-8.81-.22-9.61,0,0-33-1.94-35.64-2.12a46.17,46.17,0,0,0-11.69.22c-3.49.67-7.85,2.72-9.3,6.14s-1.34,8,1.42,10.69,6.79,2.58,10.48,2.37a206.1,206.1,0,0,0,40-5.83Z"/><path class="cls-2" d="M291.61,183.66a10.7,10.7,0,0,1,3.95.07,9.66,9.66,0,0,1,4.21,2.87,45.57,45.57,0,0,1,4.27,5,9.56,9.56,0,0,1,2.19,4.91c-6.22,1.63-12.7,1.08-19.05.93a61.91,61.91,0,0,0-9.53.36,14.73,14.73,0,0,1-8.28-.84,3.38,3.38,0,0,1-1.14-.75c-1.91-2.13,1.25-6.91,3-8.19,3.12-2.31,8.41-2.8,12.13-3.37C286.09,184.26,288.85,184,291.61,183.66Z"/><path class="cls-6" d="M303.52,195.91c-1.68-4.1-4.32-8-8.41-10-.22-.11-.86.12-.49.3,4,2,6.57,5.87,8.22,9.89C302.93,196.28,303.64,196.19,303.52,195.91Z"/><path class="cls-6" d="M292,188.62a.52.52,0,0,0-.5-.05c-.09,0-.25.17-.11.27,2.88,2,5.85,4.35,7,7.83.07.24.78.16.68-.13C297.93,193,294.92,190.67,292,188.62Z"/><path class="cls-6" d="M294.76,196.56c-1.51-2.08-3.16-4.29-5.64-5.25a.55.55,0,0,0-.5,0c-.12.08-.14.22,0,.28,2.4.93,4,3.07,5.45,5.08C294.23,196.9,294.92,196.78,294.76,196.56Z"/><path class="cls-6" d="M249.79,184.92A32.54,32.54,0,0,0,232,187a13.73,13.73,0,0,0-3.8,2.69c-.3.3.55.47.77.25a15.11,15.11,0,0,1,6.79-3.76,36.42,36.42,0,0,1,8.23-1.25,18.76,18.76,0,0,1,5.34.42c.18,0,.48.07.61-.09S250,185,249.79,184.92Z"/><path class="cls-6" d="M275.4,186.38a1.84,1.84,0,0,0-1.42.78,11.81,11.81,0,0,0-1,1.19,12.61,12.61,0,0,0-1.64,2.73c-.15.34.73.43.86.13a12.82,12.82,0,0,1,1.41-2.43,11.22,11.22,0,0,1,.89-1.07c.15-.17.31-.33.48-.49l.25-.24.11-.08.07,0h0c.14,0,.44-.06.44-.25S275.53,186.39,275.4,186.38Z"/><path class="cls-2" d="M276.4,76.25a9.7,9.7,0,0,0,2,3,18.26,18.26,0,0,0,8.25,4.45,30.06,30.06,0,0,0,14.89.49c3-.69,6.79-2.35,7.13-5.78a101.23,101.23,0,0,1,1.65-10.15c.51-2.51,1.06-5,1.53-7.51.33-1.74.63-3.48.85-5.24l.08-.56a7.32,7.32,0,0,0,0-2.64c-.67-2.73-5.85-2.34-8.17-2.63l-17.4-2.2c-1.29-.16-4.18-1.59-5.31-.65-.63.52-.74,3.51-.91,4.35-.35,1.56-.71,3.13-1.09,4.68C278.36,62,273.76,70,276.4,76.25Z"/><path class="cls-6" d="M283.78,59.67c1.59,7.43,8.61,12.82,16,13.31a13.38,13.38,0,0,0,2.61,0,12.81,12.81,0,0,0,7.93-4.72c.51-2.51,1.06-5,1.53-7.51a9.14,9.14,0,0,0-1-2.21,10.77,10.77,0,0,0-2.3-2.59c-2.64-2.14-6-3.1-9.41-3.62a26,26,0,0,0-10.54.26C284.61,53.58,282.86,55.42,283.78,59.67Z"/><path class="cls-2" d="M324,12.62A11.84,11.84,0,0,0,322.74,11a25.23,25.23,0,0,0-4.16-3.77,19.57,19.57,0,0,0-10.25-3.64,27.78,27.78,0,0,0-17.24,4.76c-8.23,5.62-11.7,14.38-12.11,24a51.35,51.35,0,0,0,2.12,16.34A37.15,37.15,0,0,0,289.43,64c4.07,4.31,12.27,7.31,18.06,4.59a23.41,23.41,0,0,0,9.92-8.14,42.87,42.87,0,0,0,2.43-4.15,59.65,59.65,0,0,0,4.79-12.72,56.79,56.79,0,0,0,.56-27.66A10.64,10.64,0,0,0,324,12.62Z"/><path class="cls-6" d="M311.42,35.33l-.09,0c-.89-.2-1.37,2.6-1.52,3.32a21,21,0,0,0-.41,4.54c0,1.91.41,3.78.45,5.68,0,2.37-2.5,2.87-4,2.94-.81,0-.36.81.23.79,1.42-.07,3.33-.41,4.4-1.69a3.15,3.15,0,0,0,.56-2.35c-.08-1.08-.25-2.15-.33-3.24a25.38,25.38,0,0,1,.06-4.85,16.73,16.73,0,0,1,.44-2.43c.17-.67.7-1.6.53-2.3A.57.57,0,0,0,311.42,35.33Z"/><path class="cls-1" d="M324.72,37.08a1.34,1.34,0,0,0,.11.14c.06.08.31.43.42.32a.42.42,0,0,0,.06-.35,4.71,4.71,0,0,0-.83-1.88,7.21,7.21,0,0,0-3-2.71,14.22,14.22,0,0,0-4.72-1.25c-.87-.1-2.81-.33-2.57,1.42.08.59.64.85,1.14,1a7.39,7.39,0,0,0,1.88.15,13.74,13.74,0,0,1,2.71-.12,5.62,5.62,0,0,1,2.5,1,9.33,9.33,0,0,1,1.64,1.51C324.31,36.56,324.51,36.82,324.72,37.08Z"/><path class="cls-1" d="M289.6,30.31c.66-1.32,3.34-2.15,4.64-2.52a13.37,13.37,0,0,1,8.76.45c1,.43,1.91,1.9.45,2.53a2.83,2.83,0,0,1-1.36.12,13.78,13.78,0,0,1-3.22-.67c-1.42-.48-2.83-1.2-4.33-1.14a8.29,8.29,0,0,0-2.63.67C291.3,30,290.21,30.61,289.6,30.31Z"/><path class="cls-1" d="M298.93,36.65a1.42,1.42,0,0,0-1.52-.71,2.21,2.21,0,0,0-1.42.4,3.17,3.17,0,0,0-1.12,1.77,3.55,3.55,0,0,0,0,1.94,1.75,1.75,0,0,0,1.63,1.18h.11l.33,0h0l.23,0a1.61,1.61,0,0,0,.47-.15A3.09,3.09,0,0,0,299,39.14a4.18,4.18,0,0,0,.14-1.37A2.75,2.75,0,0,0,298.93,36.65Z"/><path class="cls-1" d="M319.09,39.84a1.42,1.42,0,0,0-1.52-.71,2.23,2.23,0,0,0-1.42.4A3.17,3.17,0,0,0,315,41.3a3.55,3.55,0,0,0,0,1.94,1.75,1.75,0,0,0,1.63,1.18h.11l.33,0h0l.23,0a1.61,1.61,0,0,0,.47-.15,3,3,0,0,0,1.35-1.86,3.93,3.93,0,0,0,.14-1.37A2.75,2.75,0,0,0,319.09,39.84Z"/><path class="cls-1" d="M270.1,38.68c-.11.49-.22,1-.34,1.46-2.58,10.66-1.33,22-4.77,32.44a13.09,13.09,0,0,0-.74,2.86.5.5,0,0,0,.07.36.47.47,0,0,0,.4.11c3.73-.07,8.36-.18,11.59-2.28a13.34,13.34,0,0,0,4.46-5.83c4.79-10.52,3.8-22.67,6.19-34a57,57,0,0,1,5.27-14.65,39,39,0,0,1,6.44-9,2.11,2.11,0,0,1,1.2-.79,2,2,0,0,1,1.35.58c4.67,3.71,8.11,8.7,12.37,12.86a73.77,73.77,0,0,0,7.12,6,37.08,37.08,0,0,1,6.05,5.77c1,1.16,1.55-1.13,1.65-1.76a39.72,39.72,0,0,0-.9-16.76c-1.2-4.36-3.67-8.55-7.53-10.9a30.1,30.1,0,0,0-3.48-1.68c-2.3-1-4.78-2.46-7.2-3a25.54,25.54,0,0,0-7.61,0c-2.24.2-4.61.26-6.81.61a22,22,0,0,0-11.8,6.34C274.52,15.82,272.72,27.47,270.1,38.68Z"/><path class="cls-6" d="M297.74,53.86A9.19,9.19,0,0,0,308.65,56a.85.85,0,0,1,.76,0c.18.11.21.31,0,.42a10.71,10.71,0,0,1-12.6-2.24C296.46,53.77,297.49,53.58,297.74,53.86Z"/><path class="cls-4" d="M282.49,47.27c-.66,6.18-1.87,12.5-5.4,17.74a20.81,20.81,0,0,1-3.25,3.76c-.31.29.54.46.77.25,4.58-4.17,6.86-10.13,8-16.09.35-1.87.6-3.76.8-5.66C283.42,47,282.53,46.93,282.49,47.27Z"/><path class="cls-4" d="M275.71,50.61a17,17,0,0,1-5.17,9.54c-.31.29.55.46.77.25a17.51,17.51,0,0,0,5.29-9.79C276.65,50.3,275.77,50.26,275.71,50.61Z"/><path class="cls-4" d="M321.87,22.48a34.82,34.82,0,0,1-10-7.81c-.2-.23-1.06-.08-.77.24a35.13,35.13,0,0,0,10.13,7.92.67.67,0,0,0,.63,0C322,22.73,322.05,22.58,321.87,22.48Z"/><path class="cls-4" d="M323.64,17.45a21,21,0,0,0-7.39-9.29c-.26-.18-1.06.05-.64.35a20.41,20.41,0,0,1,7.17,9.07C322.9,17.88,323.78,17.8,323.64,17.45Z"/><path class="cls-7" d="M338.45,124.34c-.07-.34-1-.31-.9,0a69.34,69.34,0,0,1,.27,20.24c-.76,6.84-2,13.64-3.08,20.43l-1.87,11.63c-.05.31.84.35.89,0L337.09,156a140.9,140.9,0,0,0,2.23-20.27A58.22,58.22,0,0,0,338.45,124.34Z"/><path class="cls-7" d="M258.26,122.48a37.93,37.93,0,0,0-1.91-12.24c-.1-.3-1-.23-.86.13a35.43,35.43,0,0,1,1.84,10.95c.15,3.88.11,7.76.12,11.64q0,12-.31,24-.18,6.72-.45,13.46c0,.33.88.34.89,0q.5-12,.67-24.08C258.36,138.39,258.46,130.43,258.26,122.48Z"/><path class="cls-7" d="M340.7,99.69q-1.79,8.9-3.56,17.77c-.06.3.83.35.9,0q1.77-8.88,3.55-17.77C341.65,99.39,340.77,99.34,340.7,99.69Z"/><path class="cls-7" d="M291.17,117.37H267.63a2.63,2.63,0,0,0-2.37,2.83v10a2.63,2.63,0,0,0,2.37,2.83h23.54a2.63,2.63,0,0,0,2.36-2.83v-10A2.63,2.63,0,0,0,291.17,117.37Z"/><polygon class="cls-1" points="437.42 126.43 411.34 194.44 410.65 196.22 407.35 202.67 297.58 202.67 300.05 196.22 300.74 194.44 326.82 126.43 437.42 126.43"/><polygon class="cls-4" points="330.04 126.43 303.96 194.44 303.27 196.22 300.8 202.67 297.58 202.67 300.05 196.22 300.74 194.44 326.82 126.43 330.04 126.43"/><polygon class="cls-1" points="410.65 196.22 407.35 202.67 248.79 202.67 248.79 196.22 410.65 196.22"/><polygon class="cls-4" points="411.34 194.44 410.65 196.22 300.05 196.22 300.74 194.44 411.34 194.44"/><path class="cls-4" d="M388.74,138.6c0,2-3.44,3.58-7.69,3.58s-7.7-1.6-7.7-3.58,3.45-3.58,7.7-3.58S388.74,136.62,388.74,138.6Z"/><rect class="cls-8" x="496.05" y="107.64" width="41.01" height="91.69" transform="translate(1033.11 306.98) rotate(180)"/><rect class="cls-7" x="520.29" y="107.64" width="20.51" height="91.69" transform="translate(1061.08 306.98) rotate(180)"/><rect class="cls-3" x="523.08" y="115.83" width="14.91" height="58.95" transform="translate(1061.08 290.6) rotate(180)"/><circle class="cls-8" cx="530.54" cy="186.61" r="5.59"/><rect class="cls-8" x="476.72" y="107.64" width="30.51" height="91.69" transform="translate(983.96 306.98) rotate(180)"/><rect class="cls-7" x="490.46" y="107.64" width="20.51" height="91.69" transform="translate(1001.42 306.98) rotate(180)"/><rect class="cls-3" x="493.25" y="115.83" width="14.91" height="58.95" transform="translate(1001.42 290.6) rotate(180)"/><circle class="cls-8" cx="500.71" cy="186.61" r="5.59"/><rect class="cls-8" x="447.73" y="107.64" width="30.51" height="91.69" transform="translate(925.98 306.98) rotate(180)"/><rect class="cls-7" x="461.47" y="107.64" width="20.51" height="91.69" transform="translate(943.44 306.98) rotate(180)"/><rect class="cls-3" x="464.26" y="115.83" width="14.91" height="58.95" transform="translate(943.44 290.6) rotate(180)"/><circle class="cls-8" cx="471.72" cy="186.61" r="5.59"/><rect class="cls-9" x="99.54" y="199.09" width="452.41" height="396.22"/><rect class="cls-10" x="110.82" y="375.9" width="8.95" height="219.41"/><rect class="cls-10" x="145.89" y="375.9" width="8.95" height="219.41"/><rect class="cls-10" x="180.97" y="375.9" width="8.95" height="219.41"/><rect class="cls-10" x="216.04" y="375.9" width="8.95" height="219.41"/><rect class="cls-10" x="251.12" y="375.9" width="8.95" height="219.41"/><rect class="cls-10" x="286.2" y="375.9" width="8.95" height="219.41"/><rect class="cls-10" x="321.27" y="375.9" width="8.95" height="219.41"/><rect class="cls-10" x="356.35" y="375.9" width="8.95" height="219.41"/><rect class="cls-10" x="391.42" y="375.9" width="8.95" height="219.41"/><rect class="cls-10" x="426.5" y="375.9" width="8.95" height="219.41"/><rect class="cls-10" x="461.58" y="375.9" width="8.95" height="219.41"/><rect class="cls-10" x="496.65" y="375.9" width="8.95" height="219.41"/><rect class="cls-10" x="531.73" y="375.9" width="8.95" height="219.41"/><polygon class="cls-10" points="610.29 595.31 601.35 595.31 601.35 380.38 91.67 380.38 91.67 371.43 610.29 371.43 610.29 595.31"/><rect class="cls-10" x="92.02" y="199.09" width="467.44" height="10.02"/><path class="cls-2" d="M32.68,192.92c0,.23,0,.45,0,.66-.44,6.29-1.11,11.83.34,18.13,1.57,6.83,4.44,13.29,7.4,19.61,4.43,9.46,9.12,18.9,15.66,27,3.27,4.08,4.6,2.47,7.13-.91s5.21-6.76,7.54-10.34a8.4,8.4,0,0,0,1.6-3.65,8.2,8.2,0,0,0-.72-3.56A156.94,156.94,0,0,0,63.67,222c-2.81-5.42-6-10.78-7.25-16.76-2.8-13.21,5-26,.74-39-1.47-4.51-4.95-9.31-10.14-9.44C33.32,156.4,33.24,183.57,32.68,192.92Z"/><path class="cls-2" d="M184,193.35a6.79,6.79,0,0,1-.59,4.5c-1.57,2.53-6.48,3.23-9.24,3.61-5.14.71-10.68.3-15.86.45-4.39.12-8.94.22-13-1.54s-7.36-5.91-6.67-10.24,4.62-7,8.37-9a86.61,86.61,0,0,1,20.35-7.76c5-1.2,7.7-.47,10.39,4,2.84,4.71,5.35,10.24,6.18,15.72C184,193.19,184,193.27,184,193.35Z"/><path class="cls-4" d="M50.33,96.49A9.66,9.66,0,0,0,48.66,98c-4.48,5.17-6.75,11.89-8.09,18.6-2.11,10.57-4.28,20.54-6.54,30.9q-3.71,17-5.88,34.17a17.22,17.22,0,0,0,0,6.28c1.17,4.74,6.41,6.68,10.77,6.92,5.48.3,14.85,2.35,19.12-2.2a16.88,16.88,0,0,0,3.16-5.93c7.28-20.13,8.69-40,9.78-61.08.27-5.19.4-10.46-.71-15.54-1.17-5.39-4.51-12.83-10-15.08A10.76,10.76,0,0,0,50.33,96.49Z"/><path class="cls-2" d="M149.85,424c.09-1.11.16-2.23.22-3.34q1-19.41,1.29-38.83c.13-9.39-.94-19,0-28.35.92-8.8-.76-18.3-.86-27.26-.23-19.74,1-39.52-.64-59.23-.91-10.93-2.92-22.34-9.76-30.9-2.2-2.75-6.24-4.4-9.51-5.42-12.64-3.95-27.55.7-32.61,13.52-4.06,10.28-3,22.11-2.21,32.88q3.42,48.51,9.45,96.78.8,6.45,1.65,12.89,2.34,17.67,5,35.28c.9,5.89,0,11.73,6.24,12.57,2.17.29,5.15-.9,7.49-.83,8.72.25,18.22,9.08,22.81-3A25.27,25.27,0,0,0,149.85,424Z"/><path class="cls-2" d="M74.23,422.58c2.14.53,4.24.89,6,1.17,4.69.77,14.73,1.51,18.34-2.26,2-2.05,2.35-5.11,2.59-7.94.72-8.4.49-16.91,1.36-25.26,4.15-40.1,8.3-80.3,7.93-120.61-.07-8.49-.41-17.24-3.91-25-4-8.71-13.69-16.4-23.68-14.19-10.2,2.25-18.74,10-22.63,19.56a89.25,89.25,0,0,0-5.74,26.1c-.87,10.42-.55,20.89-.23,31.34.54,17.84,4.26,35.85,4.24,53.62C58.49,376,60.06,393,61.36,410a16.24,16.24,0,0,0,.83,4.71C63.92,419.12,69.19,421.32,74.23,422.58Z"/><path class="cls-2" d="M147.51,436.47c-.74,4.56-1.56,9.11-2.22,13.63-2.07,14-4.15,28-6.09,42.09q-5.73,41.64-10.36,83.42c-.41,3.67-6.68,2.12-8.79,1.49-4.52-1.34-7.35-3.05-8.07-7.9-1.73-11.59-3.11-23.06-4.17-34.73a508,508,0,0,1-1.66-66.89c.43-10.64,1.42-21.2,2.32-31.79s2-21.05,5.61-31c1.76-4.93,4.35-10.7,9.4-13,6.65-3,18.65,3.62,22.53,9,2.58,3.55,3.4,8.09,3.54,12.47C149.8,421,148.76,428.76,147.51,436.47Z"/><path class="cls-2" d="M148.41,602.41s0,0,0,0l-13.58-.2a15.21,15.21,0,0,1-2.74-2.7c-2.42-2.86-4.87-5.85-8-7.84a20.17,20.17,0,0,0-7.71-2.46q-1.24-.21-2.55-.48h0a13.35,13.35,0,0,1-4.52-1.86c-2-1.34-3.93-3.27-3.46-5.94a9,9,0,0,1,1.07-2.81c.32-.57.67-1.13,1-1.68l.24-.37a45.21,45.21,0,0,0,2.39-4.45c.26-.56.52-1.14.8-1.71a10.41,10.41,0,0,1,2.07-3.09l.1-.09a6.71,6.71,0,0,1,1.23-.88l.31-.17a8.37,8.37,0,0,1,1.36-.54l.42-.12.11,0,.4-.08a11.18,11.18,0,0,1,1.91-.22,9.13,9.13,0,0,1,6.94,2.77h0a18.51,18.51,0,0,1,2.94,3.84c.25.41.49.84.72,1.26s.46.87.68,1.31.5,1,.74,1.51.45.94.67,1.41l.09.18c.86,1.81,1.71,3.62,2.57,5.42l4.23,8.93a26.77,26.77,0,0,0,3.12,5.43c.18.22.37.45.57.65h0a8.15,8.15,0,0,0,4.51,2.66C148.24,600.32,149,601.05,148.41,602.41Z"/><path class="cls-4" d="M150,602.08a4,4,0,0,0-1.45-2.37,10.55,10.55,0,0,0-2.66-1.49,13.41,13.41,0,0,0-3.24-.87l-.35-.05c-1.94-.26-3.91-.27-5.88-.63l-.68-.14a13.85,13.85,0,0,1-2.61-.9,22.85,22.85,0,0,1-5.33-3.51c-2.31-1.92-4.48-4-6.62-6.14-1.22-1.06-2.44-2.14-3.57-3.29a26.59,26.59,0,0,1-2.41-2.7,12.91,12.91,0,0,1-1.56-3,13.82,13.82,0,0,0-2.27-3.14,4.26,4.26,0,0,0-1.43-1.19l-.18-.07c-2.19-.71-3.68,5.12-4.05,6.67a10.15,10.15,0,0,0,.38,6.42c.66,1.48,1.6,2.82,2.33,4.25a12.21,12.21,0,0,1,1,5.07c.08,2,.17,3.9.25,5.85.05,1.1,1,.54,1.7.56l2.69.07c0-1.43,0-2.85,0-4.28,0-1.23,0-2.45,0-3.69s-.51-2.46.76-3.07l.18-.08a3.54,3.54,0,0,1,2.14,0,1.68,1.68,0,0,1,.32.09c.89.25,1.76.68,2.51,1,4.6,1.82,7.64,5.21,10.42,9.33a6,6,0,0,0,1.09,1.24l3.11.08h0l.84,0,13,.36h.06l1.81.05S150.15,602.29,150,602.08Z"/><path class="cls-2" d="M91.32,436.66C87.26,444.89,83,453,78.72,461.12Q72.16,473.56,65.63,486l-36.5,69.33c-1.3,2.48-2.66,5-4.79,6.83-2.87,2.43-10.92-4.38-14-4.63.68-6.69,3.33-13.56,5.23-20q10.61-36.19,21.22-72.38c1.55-5.27,3.1-10.56,5.1-15.67s4.58-10.3,7.13-15.32q6-11.83,12.3-23.55c3.58-6.67,6.46-13.76,13.14-17.91a19.83,19.83,0,0,1,10.47-3.38c4.8.05,10.13,3.32,11.68,8.06,1.65,5,3.71,13.46,3.23,18.78a26.18,26.18,0,0,1-2.67,8.33Q94.32,430.62,91.32,436.66Z"/><path class="cls-2" d="M28,587.44c-.5,1.17-1.92.3-3.09-.2a9,9,0,0,1-4.32-3.54c-.82-1.41-1.22-3.19-1.92-4.69a22.79,22.79,0,0,0-2.74-4.57A6.89,6.89,0,0,0,14,572.5c-.7-.33-1.14-.11-1.73-.87-.48-.6-.95-1.21-1.42-1.81a32.59,32.59,0,0,1-3.51-5.08A27.05,27.05,0,0,1,6,562.3a12.65,12.65,0,0,1,.21-10.23c2.37-4.66,9.88-7.85,14.69-5.27a9.76,9.76,0,0,1,3.75,3.92,22.69,22.69,0,0,1,2.4,5.17,22.1,22.1,0,0,1,.22,6.08c-.17,4.14-.81,8.26-.81,12.41a36.82,36.82,0,0,0,1.36,10,7,7,0,0,1,.38,2.11A2.66,2.66,0,0,1,28,587.44Z"/><path class="cls-4" d="M30.66,587.17a8.82,8.82,0,0,0-3.14-3.54c-1.47-.82-3-1.52-4.41-2.45l-.57-.39a14.6,14.6,0,0,1-2.06-1.85A22.8,22.8,0,0,1,17,573.62a27.4,27.4,0,0,1-2.18-4.37c-.51-1.73-.27-4-.27-5.75,0-3.79.19-7.6-.55-11.34a5.4,5.4,0,0,0-1.15-2.71c-1.87-2-4.59-.79-6.35.71a11,11,0,0,0-3.26,11.48,14.83,14.83,0,0,1,.75,2.49c.27,1.92-.75,4.53-1.31,6.38a41.47,41.47,0,0,1-2.38,6.16c-.08.18-.16.36-.25.53,1.06.64,2.15,1.23,3.26,1.77a.75.75,0,0,0,.56.1.77.77,0,0,0,.35-.34l.24-.39a34.79,34.79,0,0,0,2.53-5,8.6,8.6,0,0,1,.46-1,2.83,2.83,0,0,1,.51-.67,1.59,1.59,0,0,1,1.76-.39,2.19,2.19,0,0,1,.94,1.49,14.29,14.29,0,0,1,.49,4.36,10.11,10.11,0,0,0,.05,2.75c.85,3.58,5.31,4.24,8.12,5.52l.77.35c3.23,1.47,6.21,3.24,9.52,4.51.53.2,1.51.42,1.89-.08a.74.74,0,0,0,.16-.48A6.67,6.67,0,0,0,30.66,587.17Z"/><path class="cls-1" d="M.44,576.66a7,7,0,0,1,4,1.68l-.24.39a.77.77,0,0,1-.35.34.75.75,0,0,1-.56-.1c-1.11-.54-2.2-1.13-3.26-1.77.09-.17.17-.35.25-.53Z"/><path class="cls-1" d="M31.45,590.18c-.38.5-1.36.28-1.89.08-3.31-1.27-6.29-3-9.52-4.51l-.77-.35c-2.81-1.28-7.27-1.94-8.12-5.52a10.11,10.11,0,0,1-.05-2.75,14.29,14.29,0,0,0-.49-4.36,2.19,2.19,0,0,0-.94-1.49,1.59,1.59,0,0,0-1.76.39,2.83,2.83,0,0,0-.51.67,3.32,3.32,0,0,1,.92-2.52,2.32,2.32,0,0,1,1.43-.63c1.57-.1,3.22,1.43,4.15,2.64a14.81,14.81,0,0,1,2.26,4.74c.69,2.27,1.17,4.35,2.92,6.08a23,23,0,0,0,3.35,2.62,33.3,33.3,0,0,0,7.21,4.11A8,8,0,0,1,31.45,590.18Z"/><path class="cls-1" d="M148.28,218.56c-.19-1.26-.39-2.51-.59-3.77-.83-5.21-1.15-11.35-3.34-16.21-2.28-5.06-6-5.26-10.81-5.42-4.21-.14-8.39-.06-12.6,0-7.13.1-14.24.67-21.36.76-5.48.07-10.92.11-16.4.36-9.73.43-11.53,11.28-14.34,18.72q-5.66,15-10.17,30.37a424,424,0,0,0-17,108.36,4.3,4.3,0,0,0,.23,1.86,3.73,3.73,0,0,0,1.79,1.69c2.47,1.34,5.35,1.66,8.15,1.94a626.72,626.72,0,0,0,106.11,1.62q-1.05-26.93-2.11-53.85c-.34-8.58-1.35-17.13-1.81-25.71-.81-15.21-2-30.73-3.77-46Q149.39,225.93,148.28,218.56Z"/><path class="cls-4" d="M109.53,205.07q16.73,0,33.45-.55a4.76,4.76,0,0,0,3.17-.9c1-1,1-2.53.87-3.91-.56-7.5-1.31-14.2-.66-21.69.69-8,.86-16.21,1.9-24.18,1.08-15.73,1.73-31.68-1.4-47.13a27,27,0,0,0-3.28-9.29c-4.45-7-15-8.11-22.42-9.32-9-1.45-18-2.08-27.08-2.71C82.16,84.56,74,86,63.9,92.12a22.18,22.18,0,0,0-6.48,5.19c-2,2.57-2.77,5.82-3.31,9-2.67,15.48-.15,31.41,4,46.57C60.25,161,62.89,169,65.45,177c2.31,7.27,3.12,14.81,4.82,22.3A7,7,0,0,0,72,203.1c1.2,1.1,3,1.23,4.6,1.29Q93.05,205,109.53,205.07Z"/><path class="cls-11" d="M151.12,213.14l-5.37-.13c.46-18.71.65-37.68.56-56.4l5.37,0C151.76,175.36,151.58,194.38,151.12,213.14Z"/><path class="cls-7" d="M153.72,242.7a8.36,8.36,0,0,1-.85,3c-1.71,3.12-6.83,1.77-9.79,1.84-4.4.09-8.81.14-13.2-.18a23.53,23.53,0,0,1-19.44-13.93c-1.75-4.32-2-9-2.14-13.64a164,164,0,0,1,.13-17.6c.3-4.16-.3-11.49,5.33-12.71,2.34-.51,4.61.87,6.61,2.09a41.59,41.59,0,0,0,11.34,5.06,22.89,22.89,0,0,0,12.45-.08,21.74,21.74,0,0,1,4.4-1.28c1.91-.21,3.61,0,4.54,1.94a10,10,0,0,1,.69,3.77c.7,13.61,1.39,27.28,0,40.83Z"/><path class="cls-7" d="M125.33,97.47a56.09,56.09,0,0,0-5,13.52,284.2,284.2,0,0,0-8,43.19c-1.52,14.5-1.6,29.07-1.65,43.6,0,4.29,0,8.57,0,12.86,0,4.1.12,7.76,2,11.54.13.27.35.58.64.52s.33-.25.42-.44c2.75-5.58,2.35-12.5,2.53-18.63.11-3.93.18-7.87.07-11.8q-.33-11,.22-22.05a276.57,276.57,0,0,1,5.69-43.64q1.47-6.93,3.28-13.77a51.61,51.61,0,0,1,4.5-12.24,21,21,0,0,1,8.9-8.83.5.5,0,0,0,.23-.17.37.37,0,0,0-.15-.5,8,8,0,0,0-2.4-.55,21.05,21.05,0,0,0-2.81-.62c-2.38-.2-4.07,2.08-5.46,3.74A29.34,29.34,0,0,0,125.33,97.47Z"/><path class="cls-11" d="M133.85,243.64a43.88,43.88,0,0,1-8.28-5.68,20.47,20.47,0,0,1-5.29-8.3c-2.48-7.09-1.78-14.86-1.58-22.23q.19-6.6.37-13.21c0-.33-.88-.34-.89,0l-.34,12c-.11,3.95-.3,7.91-.23,11.87.12,6.9,1.43,14.21,6.38,19.37a40.34,40.34,0,0,0,9.23,6.57C133.49,244.15,134.29,243.9,133.85,243.64Z"/><path class="cls-11" d="M116.42,197.82a71.94,71.94,0,0,1,.1-7.77c0-.32-.86-.34-.89,0-.68,8.68,1.16,17.47-.6,26.08a26.08,26.08,0,0,1-1.9,5.82,23.22,23.22,0,0,1-2.58-10.29c-.21-4.15.11-8.33.29-12.48.1-2.39.21-4.79.31-7.18,0-.33-.88-.34-.89,0q-.29,6.38-.56,12.75a45.66,45.66,0,0,0,.67,12.3,18.26,18.26,0,0,0,2.37,5.82c.15.23.73.27.86,0C117.61,215.14,116.69,206.19,116.42,197.82Z"/><path class="cls-3" d="M116.44,195.55c-.5-.67-1.49-.49-2.24-.4l-2.8.3a3.22,3.22,0,0,0-1,.19c-.24,0-.47.09-.47.26,0,.36,0,.72,0,1.08a6.15,6.15,0,0,0,0,1v.61c0,.69-.12,1.56.84,1.69a7.18,7.18,0,0,0,1.39,0l1.42-.08,1.41-.07a2.87,2.87,0,0,0,1.28-.18c.34-.21.31-.65.34-1s.08-.87.09-1.31A3.22,3.22,0,0,0,116.44,195.55Zm-.71,2.1c0,.34,0,.67-.06,1,0,.15,0,.31,0,.47l0,.26s0,.18,0,.16-.38,0-.46,0l-.51,0-1.13.06-2.15.11a1.41,1.41,0,0,1-.29,0c.07,0,0-.06,0-.08a.66.66,0,0,1-.08-.36c0-.13,0-1.39,0-1.39a2.65,2.65,0,0,0,.49.09l.65,0a1.62,1.62,0,0,0,.58-.07.74.74,0,0,0,.44-.28.24.24,0,0,0,0-.23c0-.39-.46-.58-.81-.62a4,4,0,0,0-.6,0c-.2,0-.4,0-.6,0l-.18,0v-.24c0-.18,0-.55.19-.66a1.42,1.42,0,0,1,.42-.05l.62-.07,2.13-.23a5.73,5.73,0,0,1,.92-.09c.25,0,.36.21.44.4A4.43,4.43,0,0,1,115.73,197.65Z"/><path class="cls-11" d="M114.15,204.9a.53.53,0,0,0-.19-.31.88.88,0,0,0-.67-.14l-.09,0a.53.53,0,0,0-.25.08.58.58,0,0,0-.19.16.71.71,0,0,0-.09.28,1.4,1.4,0,0,0,0,.29.79.79,0,0,0,.1.34.76.76,0,0,0,.37.29.89.89,0,0,0,.32.05.74.74,0,0,0,.33-.05.63.63,0,0,0,.36-.28.68.68,0,0,0,.08-.34A1.77,1.77,0,0,0,114.15,204.9Z"/><path class="cls-11" d="M114.33,189a.56.56,0,0,0-.14-.29.58.58,0,0,0-.3-.18,1,1,0,0,0-.59,0,.61.61,0,0,0-.32.25c0,.07-.06.14-.09.2a.81.81,0,0,0,0,.59.45.45,0,0,0,.15.21.88.88,0,0,0,.52.18.73.73,0,0,0,.58-.22l.08-.06a.65.65,0,0,0,.17-.43A1.1,1.1,0,0,0,114.33,189Z"/><path class="cls-11" d="M114.33,177.91a.59.59,0,0,0-.14-.3.75.75,0,0,0-.3-.18.92.92,0,0,0-.59,0,.61.61,0,0,0-.32.25,1.21,1.21,0,0,0-.09.2.8.8,0,0,0,0,.59.51.51,0,0,0,.15.21.81.81,0,0,0,.52.17.73.73,0,0,0,.58-.22l.08-.06a.61.61,0,0,0,.17-.43A1,1,0,0,0,114.33,177.91Z"/><path class="cls-4" d="M143.23,168.47c-6.73-15.65-16.11-32.12-15-49.74.32-5,1.65-9.45,3.12-14.16,1.28-4.14,2.2-8.68,5.2-12a5.24,5.24,0,0,1,2-1.49c3-1.1,7.11,1,9.33,2.91a25.4,25.4,0,0,1,5.86,7.7c2,3.67,3.59,7.51,5.19,11.36q11.09,26.79,20.11,54.38c1.2,3.65,2.38,7.49,1.72,11.27-.9,5.14-5.09,6.48-8.92,8.82-4.44,2.72-10.05,6.62-15.46,3.92C149.83,188.16,145.92,174.75,143.23,168.47Z"/><path class="cls-6" d="M85,425.48c-2.37-5.34-8.25-7.79-13.75-8.25a37.53,37.53,0,0,0-5.51,0c-.14,0-.45.05-.45.25s.31.25.45.24c5.62-.33,11.76.27,16,4.42a11.46,11.46,0,0,1,2.43,3.5C84.31,425.9,85.19,425.82,85,425.48Z"/><path class="cls-1" d="M63.68,168.74c-2.25-7.53-4.48-15.08-6.19-22.76a116.12,116.12,0,0,1-3-23,75.89,75.89,0,0,1,.84-13c.05-.31-.84-.35-.89,0a83.64,83.64,0,0,0-.09,23.17,166.8,166.8,0,0,0,4.8,22.89c1.17,4.29,2.44,8.55,3.7,12.81C62.9,169.17,63.79,169.11,63.68,168.74Z"/><path class="cls-1" d="M143.49,172.23a90.86,90.86,0,0,1-10.15-23.62A91.94,91.94,0,0,1,130.15,123a89.5,89.5,0,0,1,1.41-14.42c.06-.3-.83-.34-.9,0a91.12,91.12,0,0,0-.89,25.86,93,93,0,0,0,6.29,24.93,88.49,88.49,0,0,0,6.57,13C142.8,172.64,143.68,172.53,143.49,172.23Z"/><path class="cls-1" d="M91.21,200.58A36.78,36.78,0,0,1,82,188.1a34.27,34.27,0,0,1-1.59-4.16c-.1-.3-1-.24-.87.13a37.25,37.25,0,0,0,10.92,16.76C90.66,201,91.52,200.86,91.21,200.58Z"/><path class="cls-12" d="M133.18,66.21c.49-3.34,1.27-6.63,1.59-10.07A166.25,166.25,0,0,0,135,28.45c-.52-7.12-1.72-14.71-6.32-19.89C125,4.4,119.73,2.44,114.57,1c-12.3-3.47-27.18,2.53-33.11,13.9-3.58,6.86-4,15-7.28,22-2.12,4.58-5.34,8.56-7.67,13-4,7.67-5.16,17-2.26,25.12a54.63,54.63,0,0,1,2.31,6.5c.58,2.61.41,5.37,1.3,7.89,2.21,6.18,9.32,8.16,15.21,8.33,2.41.08,4.8-.55,7.21-.52,4.16,0,8.12,2,12.27,2.22,5.18.21,8.86-2.57,13.41-4.56,7.14-3.12,13.65-3.56,16-12.88,1.26-4.92.41-9.79,1-14.73C133.07,66.94,133.12,66.58,133.18,66.21Z"/><path class="cls-13" d="M128.5,35.68c-2.36,8.2-1.33,16.77-.87,25.15.44,7.85.3,16.08-3.62,23.13a19.76,19.76,0,0,1-7.88,8c-.18.1-.15.25,0,.35a.7.7,0,0,0,.63,0c6.09-3.21,9.67-9.69,11.06-16.24,1.81-8.55.36-17.31.11-25.93a46.82,46.82,0,0,1,1.43-14.35C129.47,35.44,128.58,35.38,128.5,35.68Z"/><path class="cls-13" d="M117.37,67c0-.34-.91-.33-.89,0a21.89,21.89,0,0,1-9.89,19.07,21.65,21.65,0,0,1-5.39,2.5c-.17,0-.29.19-.16.34s.44.14.61.09a22.13,22.13,0,0,0,15.72-22Z"/><path class="cls-13" d="M77.93,52.79c-2.59,6.46-5.32,13.51-3.83,20.58.08.35,1,.31.9,0-1.49-7,1.22-14,3.8-20.45C78.94,52.57,78.05,52.49,77.93,52.79Z"/><path class="cls-13" d="M97.83,70.21a8.87,8.87,0,0,1-5.64-10.45c.1-.37-.78-.44-.86-.13a9.28,9.28,0,0,0,6,11,.63.63,0,0,0,.61-.08C98.12,70.39,98,70.26,97.83,70.21Z"/><path class="cls-13" d="M114.59,6.41a.68.68,0,0,0-.62-.09c-.13,0-.32.2-.16.34,5,4.17,4.39,11.28,3.78,17.06,0,.32.86.35.89,0C119.11,17.83,119.63,10.65,114.59,6.41Z"/></g></g></svg>